<svg width="202" height="159" viewBox="0 0 202 159" fill="none" xmlns="http://www.w3.org/2000/svg">
<path d="M1.67078 157.221C0.556927 157.221 0 156.48 0 154.997V3.78041C0 2.29789 0.556927 1.55664 1.67078 1.55664H10.1918C11.3056 1.55664 11.8625 2.29789 11.8625 3.78041V154.997C11.8625 156.48 11.3056 157.221 10.1918 157.221H1.67078Z" fill="#24DEEA"/>
<path d="M64.1319 43.1413C70.9264 43.1413 76.1615 46.2545 79.8372 52.4811C83.6243 58.7077 85.5179 67.3804 85.5179 78.4993V154.997C85.5179 156.48 84.9609 157.221 83.8471 157.221H75.3261C74.2123 157.221 73.6553 156.48 73.6553 154.997V79.8336C73.6553 72.5692 72.4301 66.9357 69.9796 62.9329C67.6405 58.9301 64.3547 56.9287 60.122 56.9287C55.6666 56.9287 52.1579 59.0783 49.5961 63.3776C47.1456 67.6769 45.9204 73.5329 45.9204 80.9454V154.997C45.9204 156.48 45.3634 157.221 44.2496 157.221H35.7286C34.6147 157.221 34.0578 156.48 34.0578 154.997V46.9217C34.0578 45.4392 34.6147 44.6979 35.7286 44.6979H44.2496C45.3634 44.6979 45.9204 45.4392 45.9204 46.9217V54.0378C45.9204 54.3343 46.0318 54.5566 46.2545 54.7049C46.4773 54.8531 46.6444 54.7049 46.7558 54.2601C48.7607 50.5538 51.2669 47.8112 54.2743 46.0322C57.3931 44.1049 60.6789 43.1413 64.1319 43.1413Z" fill="#24DEEA"/>
<path d="M131.77 13.565C127.537 13.565 124.53 15.4923 122.748 19.3469C120.965 23.0531 120.074 28.9091 120.074 36.9147V43.8084C120.074 44.4014 120.297 44.6979 120.743 44.6979H133.608C134.721 44.6979 135.278 45.4392 135.278 46.9217V54.2601C135.278 55.7427 134.721 56.4839 133.608 56.4839H120.743C120.297 56.4839 120.074 56.7804 120.074 57.3734V154.997C120.074 156.48 119.517 157.221 118.404 157.221H110.05C108.936 157.221 108.379 156.48 108.379 154.997V57.3734C108.379 56.7804 108.156 56.4839 107.711 56.4839H101.027C99.9136 56.4839 99.3566 55.7427 99.3566 54.2601V46.9217C99.3566 45.4392 99.9136 44.6979 101.027 44.6979H107.711C108.156 44.6979 108.379 44.4014 108.379 43.8084V36.6923C108.379 23.7944 110.161 14.4545 113.725 8.67272C117.29 2.89091 123.249 0 131.603 0H133.942C135.056 0 135.613 0.741258 135.613 2.22377L135.445 11.3413C135.445 12.8238 134.889 13.565 133.775 13.565H131.77Z" fill="#24DEEA"/>
<path d="M175.602 159C167.582 159 161.177 155.887 156.388 149.66C151.71 143.434 149.37 135.206 149.37 124.976V77.165C149.37 67.0839 151.765 58.8559 156.555 52.4811C161.344 46.1063 167.693 42.9189 175.602 42.9189C183.621 42.9189 190.026 46.1063 194.816 52.4811C199.605 58.8559 202 67.0839 202 77.165V124.976C202 135.206 199.605 143.434 194.816 149.66C190.026 155.887 183.621 159 175.602 159ZM175.602 144.99C179.834 144.99 183.287 143.063 185.961 139.208C188.745 135.354 190.137 130.239 190.137 123.864V78.0545C190.137 71.6797 188.745 66.565 185.961 62.7105C183.287 58.7077 179.834 56.7063 175.602 56.7063C171.369 56.7063 167.916 58.7077 165.243 62.7105C162.57 66.565 161.233 71.6797 161.233 78.0545V123.864C161.233 130.239 162.57 135.354 165.243 139.208C167.916 143.063 171.369 144.99 175.602 144.99Z" fill="#24DEEA"/>
</svg>
